<?xml version="1.0" encoding="iso-8859-1"?>
<!-- Generator: Adobe Illustrator 19.2.0, SVG Export Plug-In . SVG Version: 6.00 Build 0)  -->
<svg version="1.1" id="Calque_1" xmlns="http://www.w3.org/2000/svg" xmlns:xlink="http://www.w3.org/1999/xlink" x="0px" y="0px"
	 viewBox="0 0 56.8 29" style="enable-background:new 0 0 56.8 29;" xml:space="preserve">
<g>
	<g>
		<path style="fill:#FFFFFF;" d="M29.4,9.6c-2.7,0-4.9,2.2-4.9,4.9s2.2,4.9,4.9,4.9s4.9-2.2,4.9-4.9S32.1,9.6,29.4,9.6z M29.4,16.9
			c-1.3,0-2.4-1.1-2.4-2.4s1.1-2.4,2.4-2.4s2.4,1.1,2.4,2.4S30.8,16.9,29.4,16.9z"/>
		<polygon style="fill:#FFFFFF;" points="35.9,12.1 38.3,12.1 38.3,19.4 40.8,19.4 40.8,12.1 43.2,12.1 43.2,9.6 35.9,9.6 		"/>
		<polygon style="fill:#FFFFFF;" points="44.8,9.6 44.8,12.1 44.8,13.6 44.8,15.4 44.8,16.9 44.8,19.4 47.2,19.4 51.3,19.4 
			51.3,16.9 47.2,16.9 47.2,15.4 49.7,15.4 49.7,13.6 47.2,13.6 47.2,12.1 51.3,12.1 51.3,9.6 47.2,9.6 		"/>
		<rect x="44.8" y="6.1" style="fill:#FFFFFF;" width="6.5" height="2.4"/>
		<path style="fill:#FFFFFF;" d="M9.9,9.6L5.4,22.9h2.4l2-6h2.4l0.8,2.4h2.4l-3.2-9.7C12.2,9.6,9.9,9.6,9.9,9.6z M10.5,15.1l0.6-1.8
			l0.6,1.8H10.5z"/>
		<polygon style="fill:#FFFFFF;" points="19.3,15.7 17.3,9.6 14.8,9.6 18.1,19.4 20.5,19.4 23.7,9.6 21.3,9.6 		"/>
	</g>
</g>
</svg>
